<svg id="Layer_1" data-name="Layer 1" xmlns="http://www.w3.org/2000/svg" xmlns:xlink="http://www.w3.org/1999/xlink" viewBox="0 0 1600 1279.36"><defs><style>.cls-1{fill:url(#linear-gradient);}.cls-2{fill:url(#linear-gradient-2);}.cls-3{fill:url(#linear-gradient-3);}.cls-4{fill:url(#linear-gradient-4);}.cls-5{fill:url(#linear-gradient-5);}.cls-6{fill:url(#linear-gradient-6);}.cls-7{fill:url(#linear-gradient-7);}.cls-8{fill:url(#linear-gradient-8);}.cls-9{fill:url(#linear-gradient-9);}.cls-10{fill:url(#linear-gradient-10);}.cls-11{fill:url(#linear-gradient-11);}.cls-12{fill:url(#linear-gradient-12);}.cls-13{fill:url(#linear-gradient-13);}.cls-14{fill:url(#linear-gradient-14);}.cls-15{fill:url(#linear-gradient-15);}.cls-16{fill:url(#linear-gradient-16);}.cls-17{fill:url(#linear-gradient-17);}.cls-18{fill:url(#linear-gradient-18);}.cls-19{fill:url(#linear-gradient-19);}.cls-20{fill:url(#linear-gradient-20);}.cls-21{fill:url(#linear-gradient-21);}.cls-22{fill:url(#linear-gradient-22);}.cls-23{fill:url(#linear-gradient-23);}.cls-24{fill:url(#linear-gradient-24);}</style><linearGradient id="linear-gradient" x1="1270.13" y1="1053.42" x2="1808.66" y2="1046.47" gradientUnits="userSpaceOnUse"><stop offset="0" stop-color="red"/><stop offset="0.37" stop-color="#fd0101"/><stop offset="0.54" stop-color="#f60303"/><stop offset="0.66" stop-color="#e90708"/><stop offset="0.76" stop-color="#d70c0e"/><stop offset="0.85" stop-color="#c01316"/><stop offset="0.92" stop-color="#a41c20"/><stop offset="0.99" stop-color="#83262c"/><stop offset="1" stop-color="#80272d"/></linearGradient><linearGradient id="linear-gradient-2" x1="1269.47" y1="1001.75" x2="1807.99" y2="994.8" xlink:href="#linear-gradient"/><linearGradient id="linear-gradient-3" x1="1269.45" y1="1000.52" x2="1807.98" y2="993.57" xlink:href="#linear-gradient"/><linearGradient id="linear-gradient-4" x1="1268.91" y1="959" x2="1807.44" y2="952.05" xlink:href="#linear-gradient"/><linearGradient id="linear-gradient-5" x1="722.22" y1="1563.58" x2="1312.86" y2="1563.58" xlink:href="#linear-gradient"/><linearGradient id="linear-gradient-6" x1="722.22" y1="1562.29" x2="1312.86" y2="1562.29" xlink:href="#linear-gradient"/><linearGradient id="linear-gradient-7" x1="722.22" y1="1543.07" x2="1312.86" y2="1543.07" xlink:href="#linear-gradient"/><linearGradient id="linear-gradient-8" x1="722.22" y1="1540.05" x2="1312.86" y2="1540.05" xlink:href="#linear-gradient"/><linearGradient id="linear-gradient-9" x1="722.22" y1="1524.2" x2="1312.86" y2="1524.2" xlink:href="#linear-gradient"/><linearGradient id="linear-gradient-10" x1="722.22" y1="1510.66" x2="1312.86" y2="1510.66" xlink:href="#linear-gradient"/><linearGradient id="linear-gradient-11" x1="501.59" y1="1287.71" x2="672.15" y2="1287.71" gradientUnits="userSpaceOnUse"><stop offset="0" stop-color="#0071bc"/><stop offset="0.45" stop-color="#006fbc"/><stop offset="0.64" stop-color="#0068bc"/><stop offset="0.79" stop-color="#005bbc"/><stop offset="0.91" stop-color="#004abc"/><stop offset="1" stop-color="#0036bc"/></linearGradient><linearGradient id="linear-gradient-12" x1="402.08" y1="866.41" x2="839.77" y2="866.41" gradientUnits="userSpaceOnUse"><stop offset="0" stop-color="#2e3192"/><stop offset="0.31" stop-color="#2e318c"/><stop offset="0.72" stop-color="#2e317c"/><stop offset="1" stop-color="#2e316d"/></linearGradient><linearGradient id="linear-gradient-13" x1="200" y1="1366.37" x2="1786.63" y2="1366.37" gradientUnits="userSpaceOnUse"><stop offset="0" stop-color="#f7931e"/><stop offset="0.43" stop-color="#f7911e"/><stop offset="0.62" stop-color="#f68a1f"/><stop offset="0.76" stop-color="#f57d20"/><stop offset="0.88" stop-color="#f46b21"/><stop offset="0.98" stop-color="#f25423"/><stop offset="1" stop-color="#f14e24"/></linearGradient><linearGradient id="linear-gradient-14" x1="1226.59" y1="1201.68" x2="1779.01" y2="1232.95" gradientUnits="userSpaceOnUse"><stop offset="0" stop-color="#006837"/><stop offset="0.51" stop-color="#006637"/><stop offset="0.73" stop-color="#005f37"/><stop offset="0.89" stop-color="#005237"/><stop offset="1" stop-color="#004537"/></linearGradient><linearGradient id="linear-gradient-15" x1="1224.6" y1="1236.88" x2="1777.02" y2="1268.14" xlink:href="#linear-gradient-14"/><linearGradient id="linear-gradient-16" x1="1227.53" y1="1184.94" x2="1779.96" y2="1216.21" xlink:href="#linear-gradient-14"/><linearGradient id="linear-gradient-17" x1="1225.41" y1="1222.43" x2="1777.84" y2="1253.7" xlink:href="#linear-gradient-14"/><linearGradient id="linear-gradient-18" x1="1223.7" y1="1252.71" x2="1776.12" y2="1283.98" xlink:href="#linear-gradient-14"/><linearGradient id="linear-gradient-19" x1="1228.21" y1="1173.1" x2="1780.63" y2="1204.37" xlink:href="#linear-gradient-14"/><linearGradient id="linear-gradient-20" x1="1222.13" y1="1280.43" x2="1774.55" y2="1311.7" xlink:href="#linear-gradient-14"/><linearGradient id="linear-gradient-21" x1="1232.36" y1="1099.74" x2="1784.78" y2="1131.01" xlink:href="#linear-gradient-14"/><linearGradient id="linear-gradient-22" x1="1233.55" y1="1078.73" x2="1785.97" y2="1110" xlink:href="#linear-gradient-14"/><linearGradient id="linear-gradient-23" x1="1226.57" y1="1201.91" x2="1779" y2="1233.18" xlink:href="#linear-gradient-14"/><linearGradient id="linear-gradient-24" x1="672.69" y1="1310.29" x2="772.66" y2="1310.29" xlink:href="#linear-gradient-11"/></defs><title>logo amazing blitar land of kings</title><path class="cls-1" d="M1800,1000a2.85,2.85,0,0,0-.35,1c.21,4.72-2.76,6.69-6.72,7.84-8,2.31-15.91,4.68-23.9,6.89a16.56,16.56,0,0,0-4.57,1.85,37.34,37.34,0,0,1-11.36,5c-6.72,1.6-11.6,5.62-15.67,11a104.45,104.45,0,0,0-9.53,15,137.21,137.21,0,0,1-17.17,24.75c-2.51,3-5,6-7.26,9.2-8.42,12.13-19.57,21.14-32.14,28.6-14.07,8.36-28.93,14.67-45.18,17.35-9,1.49-18,1.39-26.69-1.54a17.69,17.69,0,0,1-12-20.06c1.26-7.74,5.25-14.11,10.06-20.09,6.19-7.7,14.35-13,22.3-18.6a368.43,368.43,0,0,1,71.79-38.76c.76-.31,1.53-.63,2.28-1a2.88,2.88,0,0,0,.54-.47c0-1-.88-1-1.45-1.24-3.38-1.66-4.12-3.64-2.7-7.2a34.93,34.93,0,0,1,13.08-16q2.33-1.62,4.7-3.2a12.25,12.25,0,0,0,5.35-6.39,11.83,11.83,0,0,1,3.83-5c6.25-5.43,13.49-9.17,21-12.48,10.67-4.72,21.69-8.25,33.35-9.55a30.56,30.56,0,0,1,13,1.11c3.88,1.26,4.67,4.72,1.76,7.66a18.74,18.74,0,0,1-7,4,96.6,96.6,0,0,1-13.87,3.73,1.54,1.54,0,0,0-.11,1.54c.64,1.68,0,2.65-1.73,2.47-3-.32-4.1,1.4-4.86,3.95-1.14,3.85-2.56,7.63-3.85,11.44-.89,2.67-.47,3.22,2.38,2.67,5.12-1,10.11-2.53,15.13-4a129.74,129.74,0,0,1,17.31-3.92,65.62,65.62,0,0,1,10.29-.35Zm-76.81,35a5.67,5.67,0,0,0-3.43.49c-3.82,1.29-7.67,2.5-11.41,4a380.5,380.5,0,0,0-43.72,20.49c-16.55,9-32.61,18.85-46.88,31.31-6,5.23-11.48,11-15.55,17.88-2.4,4.09-2.26,4.4,2,6l1,.38c10,3.56,20,3.18,30,.23,12.12-3.57,22.73-10,32.61-17.67,21.64-16.82,39.17-37.36,54.1-60.22C1722.53,1037,1723.4,1036.26,1723.19,1035Zm24.09-49.63-.42-.61a55.58,55.58,0,0,0-7.52,3.86c-10.8,6.62-20.11,15-28.62,24.31-.32.35-.63.71-.92,1.08-.43.56-1,1.19-.54,1.89s1.29.46,2,.39a9.34,9.34,0,0,0,3.93-1.56,44.32,44.32,0,0,0,11.83-10.66,66.77,66.77,0,0,1,9.77-9.76C1740.3,991.35,1743.78,988.34,1747.28,985.36Z" transform="translate(-200 -360.32)"/><path class="cls-2" d="M1377.6,997.84a32.87,32.87,0,0,0,6-4.29c4.12-3.62,8.45-6.86,13.81-8.51,6.75-2.08,9.41-.21,9.42,6.79V1000c1.22.42,2-.53,2.78-1.1,4.43-3.19,8.78-6.46,13.2-9.66a29.75,29.75,0,0,1,10.76-5.29c6.4-1.49,11.87.7,11.33,10a53.31,53.31,0,0,1-4,16.14,47.35,47.35,0,0,0-2.71,8.42c2.23-2.07,4.55-4.06,6.69-6.23,5.13-5.22,11.26-9,17.66-12.42a39.29,39.29,0,0,0,10-7.84c11.58-12.18,25.29-21.36,40.47-28.44a31.58,31.58,0,0,1,6.39-2.14,3.45,3.45,0,0,1,3.77,1.25c1.36,1.64,2.91,3.11,4.4,4.63,2.82,2.91,3.13,5,.72,8.13a201.76,201.76,0,0,0-11.46,17.12c-4.94,8-9.42,16.17-12.06,25.25a31,31,0,0,0-1.35,10.52c.17,2.79,1.32,3.42,3.65,1.85,4-2.67,7.07-6.31,10.14-9.91,5.08-5.94,10-12,15-18,.73-.87,1.29-2,2.9-2.25,1.27,4.13-.65,8.3-.1,12.3a1.28,1.28,0,0,0,1.48-.32c14.09-10.09,29.21-18.51,44.14-27.25l7.66-4.51A13.21,13.21,0,0,0,1590,979c.64-.54,1.31-1.17,1-2.11a1.78,1.78,0,0,0-1.78-.95c-1.65-.09-3.31-.19-5-.15q-11.89.33-23.8.73a34.88,34.88,0,0,1-7.07-.61,15.33,15.33,0,0,1-7.84-3.93c-3.58-3.29-3.1-6.83,1.17-9.11a17.71,17.71,0,0,1,5.34-1.92c13.84-2.34,27.75-3.31,41.74-1.59a28.47,28.47,0,0,1,5.52,1.33,12.79,12.79,0,0,1,7.82,17.72,27.32,27.32,0,0,1-8.52,10.31c-5.59,4.43-11.82,7.87-18,11.44-12.6,7.32-25.27,14.54-37.3,22.79a41.72,41.72,0,0,0-6.41,5.06c-.64.66-1.47,1.36-1,2.44s1.41,1.22,2.36,1.28a75.76,75.76,0,0,0,12.42-.24c11.1-1.21,22-3.56,32.9-5.75,6.51-1.3,13-2.63,19.58-3.57a22.49,22.49,0,0,1,6-.19,1.15,1.15,0,0,1,1.09.77,1.09,1.09,0,0,1-.62,1.16c-.4.26-.8.5-1.22.72-13.14,6.84-26.08,14.08-39.73,19.87a99.8,99.8,0,0,1-17.54,5.78,39.44,39.44,0,0,1-12.71.88c-8.54-.91-14.37-5.55-17.94-13.28-.72-1.55-.56-4.14-2.39-4.41-1.65-.24-2.68,2.06-4.06,3.15a26.84,26.84,0,0,1-6.85,4.39c-4.16,1.56-7.26.14-8.63-4.1-1.26-3.91-1.11-8-.67-12a115.46,115.46,0,0,1,2.23-12.94c.21-.9.29-1.82.43-2.78-1.36,0-1.85.9-2.5,1.51a67.11,67.11,0,0,0-10.12,11.87c-4.46,6.72-9,13.39-14.93,18.93a24.82,24.82,0,0,1-6.37,4.47c-4.81,2.24-11-.62-10.56-7.22a22.8,22.8,0,0,1,2.19-8.55c2.68-5.61,6.43-10.48,10.39-15.21,3.57-4.27,7.18-8.51,10.72-12.81a14.84,14.84,0,0,0,2.8-4.39c-1.56-.24-2.54.64-3.55,1.24a87.28,87.28,0,0,0-11.42,8.45,133.05,133.05,0,0,0-17.44,17.68,55.68,55.68,0,0,1-12.9,12.12,17.35,17.35,0,0,1-7.6,2.82c-4.36.47-7-1.59-7.8-5.88-1.3-6.84.46-13.16,3.23-19.29,1.71-3.77,3.62-7.43,5.55-11.35-1.12-.39-1.69.32-2.32.67a93.64,93.64,0,0,0-14.36,9.81,51.79,51.79,0,0,1-9.11,6.18c-1.59.85-3.25,1.6-4.87,0-.84-.85-1.45-.21-2.08.4a15.62,15.62,0,0,0-4.88,10.36,16,16,0,0,1-1.37,5.85c-1.13,2.34-2.15,2.59-4,.91a12.55,12.55,0,0,1-4.52-11.73c.69-5,3-9.45,5.51-13.75.84-1.42,1.76-2.8,2.85-4.52a3.31,3.31,0,0,0-2.3.88,86.29,86.29,0,0,0-12.12,9.86c-6.13,5.75-12.13,11.65-18.52,17.12a15.77,15.77,0,0,0-3,3.95,8.73,8.73,0,0,1-5.85,4.26c-2.89.6-4.31-.29-4.53-3.3a28.14,28.14,0,0,1,2.26-13.18,41.38,41.38,0,0,1,5.49-8.69c2.72-3.6,5.31-7.29,6.55-11.71a10.88,10.88,0,0,0,.28-1.38c0-.08-.12-.19-.29-.42-2,2.16-4,4.31-6,6.42a288.45,288.45,0,0,1-21.76,19.89c-4.36,3.69-8.25,7.83-12.25,11.86-4.77,4.81-9.73,9.37-15.63,12.8a22.27,22.27,0,0,1-6.93,2.68,8.91,8.91,0,0,1-9.82-4.07,20.26,20.26,0,0,1-3.17-10c-.45-7.21.9-14.16,3-21,1.38-4.4,3-8.74,4.48-13.11.57-1.65,1.16-3.3,1.94-5.51a7.94,7.94,0,0,0-2.95,2.57q-19.2,22.16-38.36,44.34c-3.57,4.12-7.08,8.29-10.93,12.15-5.75,5.76-11.39,5.9-18.17,2.61a11.34,11.34,0,0,1-6.25-12.09,39.48,39.48,0,0,1,5.26-14.23c3.81-6.75,8.82-12.6,13.64-18.61,7.94-9.87,15.79-19.82,23.69-29.73.89-1.11,1.86-2.16,2.75-3.26a14.65,14.65,0,0,0,3.11-4.93.93.93,0,0,0-1.41.09c-7.89,6.63-15.71,13.36-23.68,19.88-7.38,6-13.29,13.49-19.87,20.3-3.94,4.09-7.73,8.34-11.6,12.5-.47.5-.87,1.15-1.9,1.18-.58-1.23.37-2.16.82-3.11a149,149,0,0,1,20.64-31.82,269.16,269.16,0,0,1,67.46-58.28,101.67,101.67,0,0,1,18.15-8.95c1-.36,2-.69,3-1,4.83-1.22,7.47,1,7.06,6.07,0,.46-.27.91.1,1.34,6.48-.09,6,1.9,6.51,6.73a39.06,39.06,0,0,1,.24,3.9c0,3.63-.46,7.08-3.14,9.87-7.59,7.87-12.93,17.22-17.51,27a284.67,284.67,0,0,0-13.42,33.64,71,71,0,0,0-3,12.78c-.27,2.09-.73,4.52,1.34,5.9s4.12-.06,5.89-1.21a85.62,85.62,0,0,0,12.1-9.87c11.64-11,22.49-22.75,33.4-34.43a204.34,204.34,0,0,1,14.94-14.2c3.49-3,7.48-5.45,12.29-6,4.38-.47,5.22.1,5.75,4.54a34.71,34.71,0,0,1-.94,13c-.3,1.14-.59,2.27-.88,3.4Zm-68.16-35c-6.51,5-12.69,9.51-18.18,14.89-8.21,8.05-15.86,16.61-23.22,25.43a312.08,312.08,0,0,0-22.87,30.32,15,15,0,0,0-2.47,4.85C1250.48,1033.56,1301.31,976,1309.44,962.89Zm197.11,25.05c-15.32,11.56-26.78,26.52-37.32,42.3C1483,1017.31,1494.77,1002.62,1506.55,987.94Z" transform="translate(-200 -360.32)"/><path class="cls-3" d="M1654.38,986.18c-5.71,5.64-10.91,11.61-16.53,17.19-4.71,4.67-9.37,9.4-14.94,13.09a19,19,0,0,1-4.69,2.49c-3,.94-4.68.31-6.32-2.33-3.13-5-3.35-10.56-2.28-16.14,1.48-7.77,5.45-14.33,10.57-20.23,1.4-1.6,3-3,4.47-4.58a3.33,3.33,0,0,1,4.47-.69c2,1.09,2.87,2.55,2.59,4.6a12.27,12.27,0,0,1-3,6,34.1,34.1,0,0,0-5,9.72,10.58,10.58,0,0,0-.6,2c-.4,2.54.71,3.56,3.27,3a12.14,12.14,0,0,0,4.46-2.15,82.65,82.65,0,0,0,12-11.08,84.94,84.94,0,0,1,15-13.53,16.45,16.45,0,0,1,5.8-2.62c3.72-.79,6,.94,6.22,4.76.07,1.16,0,2.32,0,3.76a35.11,35.11,0,0,0,6.3-3.4,24.89,24.89,0,0,1,5.75-2.74,8.71,8.71,0,0,1,11.12,6.14,15.45,15.45,0,0,1,.33,6.69,25.07,25.07,0,0,1-4.13,11.24,27.93,27.93,0,0,0-4.72,11.75c-.18,1-.34,2.11-.59,3.14-.74,3-1.72,4.23-3.68,4-3.43-.49-5.2-1.26-5.62-4.33-.66-4.87,1.15-9.07,3.42-13.14,1.32-2.37,3-4.54,4-7.09.66-1.71,1.91-3.57.29-5.31s-3.56-.76-5.32-.18a27.57,27.57,0,0,0-13.23,9.2,77.54,77.54,0,0,0-7.22,11.38,58.77,58.77,0,0,1-5.5,8.7,13.57,13.57,0,0,1-5.83,4.5c-2.9,1.09-4.13.16-3.77-2.86a28.93,28.93,0,0,1,2-7.17c2.74-6.95,6.18-13.58,9.42-20.29C1653.42,988.49,1653.88,987.32,1654.38,986.18Z" transform="translate(-200 -360.32)"/><path class="cls-4" d="M1627.05,962.14a8.37,8.37,0,0,1,1.19-4.74,18.2,18.2,0,0,1,4.75-5.22,67.91,67.91,0,0,1,22.77-11.36c1.74-.5,4-1.61,5.21.33,1.07,1.73-.88,3.25-1.86,4.62-3,4.18-6.48,7.87-11.24,10.11a15.4,15.4,0,0,0-4.17,3.27c-2.36,2.34-4.66,4.73-7.12,7-1.69,1.53-3.7,2.92-6.08,1.59A7.11,7.11,0,0,1,1627.05,962.14Z" transform="translate(-200 -360.32)"/><path class="cls-5" d="M990.53,1639.68c-5.62-8-5.74-17.12-4.74-26.3,1.05-9.7,4-19,7-28.23,1.12-3.52.9-6.4-1.4-9.36-1.3.39-2,1.56-2.9,2.44a11.76,11.76,0,0,1-7.82,3.79,5.78,5.78,0,0,0-4.87,3,33.14,33.14,0,0,1-6.12,6.88c-5.91,5-12.18,4.21-16.22-2.42a32.12,32.12,0,0,1-3.81-25.63c2.93-11.11,9.26-20.15,18.08-27.44a20.64,20.64,0,0,1,8.44-4.39,10.1,10.1,0,0,1,5.94.38c2.59.95,3.87,2.82,3.36,5.5a4.36,4.36,0,0,0,1.21,4.46c1.61,1.6,1.78,3.82,1.78,6a54.5,54.5,0,0,1-3.47,18c-.47,1.35-1,2.66-1.53,4-.27.7-.41,1.4.26,1.94a1.73,1.73,0,0,0,2,.17c2.21-1.35,4.71-2.6,5.3-5.39a11.34,11.34,0,0,1,5-7.44,11.32,11.32,0,0,0,3.62-4.74,33.47,33.47,0,0,1,2.74-5.37c4.12-5.65,6.38-12.07,8.38-18.67a395.91,395.91,0,0,1,13.8-37.29,26.4,26.4,0,0,1,2.41-4.74c1.29-1.9,3.06-1.73,4.17.31a13.62,13.62,0,0,1,1.36,6.19,42.3,42.3,0,0,1-2.39,15c-3,8.86-6.94,17.37-10.55,26s-7.33,17.21-11.16,25.74c-1.07,2.38-.94,4.16.84,6.08a36,36,0,0,1,5.63,8.16c1.23,2.43,1.75,2.5,4,.81a42.31,42.31,0,0,0,6.53-6.51,22.79,22.79,0,0,1,2.48-2.53.9.9,0,0,1,1.58.58c.38,2.12.56,4.28-.82,6.15-2.46,3.33-4.7,6.89-8,9.44a6,6,0,0,0-2.42,5.16c-.17,7.71-.79,15.38-3.53,22.7a74.19,74.19,0,0,1-13.2,22.57c-1.72,2-4,3.36-6,5Zm4.35-26.68c0,.59,0,1.18,0,1.77a20.31,20.31,0,0,0,1.52,8.31c1.11,2.57,2.58,2.78,4.56.78a15,15,0,0,0,2.74-4.12c4.17-8.62,5.15-17.85,5.19-27.26a2.34,2.34,0,0,0-2.22-2.65,16.33,16.33,0,0,1-5-1.72c-1.42-.73-2.13-.22-2.57,1.25C996.78,1597.09,995,1604.89,994.88,1613Zm-17.68-66-.41-.29c-2.49,2.14-4.91,4.35-7.48,6.39-7.46,5.91-10.73,13.84-11.36,23.08-.34,5,3.25,7.44,7.85,5.31a26.07,26.07,0,0,0,4.88-3.5,3.43,3.43,0,0,0,1.3-3.74,27.46,27.46,0,0,1-.39-8.45,54.41,54.41,0,0,1,3.58-13.65C975.85,1550.4,976.53,1548.69,977.2,1547Z" transform="translate(-200 -360.32)"/><path class="cls-6" d="M1223,1546c-1.1,1.49-2.24,3-3.29,4.48-5.13,7.44-9,15.58-12.69,23.79a58.71,58.71,0,0,1-3.19,6.34c-2.19,3.56-4.41,3.5-6.68-.08a30.88,30.88,0,0,1-3.21-8.24c-.19-.66-.11-1.45-.88-1.89-1.15.17-1.24,1.28-1.68,2-2.68,4.62-5.49,9.14-9.37,12.89-6.53,6.34-12.9,5.17-16.4-3.24-4.74-11.38-5.59-22.9-.72-34.53,2.34-5.58,4.6-11.18,8.41-16a12.47,12.47,0,0,1,5.8-4.51c3.58-1.17,6.15.55,6.38,4.31a8.92,8.92,0,0,1-.21,2.47,48.83,48.83,0,0,1-6.45,16.44c-1.81,2.78-3.48,5.65-5.22,8.47a11.68,11.68,0,0,0-1.52,7.53c.55,5.17,5,7.51,9.61,4.94,3.15-1.79,5.35-4.64,7.69-7.31a15.39,15.39,0,0,0,3.5-7.2,81.84,81.84,0,0,1,9.33-23,9.43,9.43,0,0,1,4.55-4.33,4.93,4.93,0,0,1,5.35.68,4.35,4.35,0,0,1,1.16,5.18,25.79,25.79,0,0,1-1.68,3.52,143.75,143.75,0,0,0-7.61,15.64,15,15,0,0,0-1.27,4.42c-.06.91-.47,2.12.59,2.56s1.58-.75,2-1.51c1.2-2,2.37-4.1,3.45-6.21q3.23-6.33,7-12.39a106.65,106.65,0,0,1,12.61-16.7,13.35,13.35,0,0,1,3.5-3c1.48-.78,2.91-.69,3.66.87,2.32,4.85,4.47,9.74,1.5,15.18a143.89,143.89,0,0,0-6.33,13.12,51.89,51.89,0,0,0-2.81,8.41,11,11,0,0,0-.12,5.28,2.1,2.1,0,0,0,3,1.62,2,2,0,0,0,.65-.29c4.35-3.69,9.08-7.5,10.2-13.21,2-10.24,6.83-18.86,13.32-26.71A69.24,69.24,0,0,1,1265.6,1515a21.43,21.43,0,0,1,6.06-3.65c5-1.73,8,.87,7,6.08a11.12,11.12,0,0,1-2.76,5.29,47.14,47.14,0,0,1-5.69,5.34,57.81,57.81,0,0,0-15.11,18.64,34.88,34.88,0,0,0-3.11,9,10.76,10.76,0,0,0,.28,6c1,2.58,2.63,3.16,5,1.72a11.72,11.72,0,0,0,3-3,104.69,104.69,0,0,0,13.09-22.31c1.56-3.58,3.35-7.06,5.12-10.55a9.82,9.82,0,0,1,3-3.87c2.25-1.56,4.44-1,5.49,1.52a14.54,14.54,0,0,1,.6,7.35c-1,8.73-3.06,17.25-4.79,25.84-.18.89-.74,1.77-.21,2.73.78.15,1-.49,1.4-.91a96.3,96.3,0,0,0,14.2-21.16c3.89-8.12,8-16.1,12.12-24.13a14.37,14.37,0,0,0,1.71-6.09,15.22,15.22,0,0,1,1.33-5.85,5.47,5.47,0,0,1,3.86-3.39c2.35-.53,4.2.39,4.49,2.74.63,5.15,2.77,9.78,4.49,14.56,4.93,13.71,1.59,25.83-7,37-.65.84-1.31,1.67-1.94,2.53a3.68,3.68,0,0,0-.21,1c2,.81,3.62-.1,5.18-1a28.29,28.29,0,0,0,7.76-7.23c1.41-1.75,2.66-3.63,4-5.45a5.66,5.66,0,0,1,2.35-2.42c1.45,2.25,2,4.56.66,6.91-3.89,7.08-8.19,13.88-13.92,19.66a22.5,22.5,0,0,1-4.46,3.5,11.33,11.33,0,0,1-11.54.52,21.9,21.9,0,0,1-11.13-12.36c-.4-1.1-.43-2.34-1.3-3.33-1.2.2-1.59,1.29-2.16,2.1-4.41,6.16-8.75,12.39-13.19,18.53a25,25,0,0,0-3.49,7.32c-3.27,10.4-6.89,20.68-12.52,30.1a69.79,69.79,0,0,1-4.17,6.19,19.27,19.27,0,0,1-3.2,3.31c-2.89,2.38-5,1.52-5.69-2.22a15.24,15.24,0,0,1,.12-5c1.41-9.31,5.28-17.65,10.15-25.58.87-1.41,1.85-2.76,2.81-4.1,7.25-10.07,7.26-10.06,9.9-22,.79-3.56,1.51-7.14,2.32-11-1.23.25-1.41,1.1-1.77,1.73a125.29,125.29,0,0,1-8.73,13.8,33.57,33.57,0,0,1-7,7.08c-3.84,2.74-6.6,2.31-9.52-1.4a31.72,31.72,0,0,1-4.63-8.76c-.4-1.09-.48-2.33-1.41-3.24-1.13.18-1.35,1.24-1.85,2-2.85,4.21-5.65,8.47-8.49,12.7a23.76,23.76,0,0,1-5.26,5.74c-3.81,2.92-7.69,1.84-9.36-2.67a22.88,22.88,0,0,1-.51-13c1.29-6.16,3.5-12,5.4-18,.38-1.2.71-2.42,1.07-3.63Zm90.25-22.68c-1.55,2.89-3.09,5.79-4.66,8.67-2.22,4-4.46,8.07-6.7,12.11-.49.89-.9,1.89.48,2.27,3.22.9,5,3.38,6.91,5.83,1.77,2.3,2.42,2.32,4.33.09a16.43,16.43,0,0,0,3.86-12.2A55.14,55.14,0,0,0,1313.23,1523.31Z" transform="translate(-200 -360.32)"/><path class="cls-7" d="M894.23,1534c1.66-1,1.83-2.26,2.28-3.32,4.43-10.35,8.88-20.68,14.11-30.66a43.65,43.65,0,0,1,5.1-8.1c2-2.41,4.1-2.11,5.51.73a9.36,9.36,0,0,1,.5,6.92,70.77,70.77,0,0,1-4.82,12.21c-4.82,9.64-9.71,19.24-14.45,28.93-4.16,8.52-8,17.17-9.58,26.65a29.14,29.14,0,0,0-.28,8.49c.45,3.39,2.57,4.38,5.58,2.76a23.05,23.05,0,0,0,5.42-4.57c2.14-2.21,4.22-4.48,6.34-6.71.47-.5.89-1.27,1.73-.89s.63,1.2.64,1.88a9.14,9.14,0,0,1-1.22,5.45c-4.08,6.13-8.23,12.18-13.62,17.27a21.61,21.61,0,0,1-5.11,3.81c-4.57,2.28-8.2.48-9.35-4.5s-.23-10.14.29-15.19c.23-2.22.68-4.42,1.09-7a8.79,8.79,0,0,0-3.09,3.07A143.75,143.75,0,0,1,866.5,1588c-4.06,3.79-6.12,3.43-8.55-1.54a42.27,42.27,0,0,1-3.39-11.55c-.15-.9.22-2.17-.83-2.55-1.23-.45-1.79.88-2.5,1.59-3.94,3.93-7.42,8.3-11.72,11.88a24.35,24.35,0,0,1-4.91,3.49c-4.14,2-7.68.19-8.46-4.35a22.73,22.73,0,0,1,1.47-12.19,112.39,112.39,0,0,1,6.31-12.73c1.33-2.48,2.57-5,3.9-7.6-1.33-.44-1.73.48-2.26,1A117.61,117.61,0,0,0,820.67,1571q-2.62,3.79-5.3,7.57a35.53,35.53,0,0,1-2.64,3.34c-3.11,3.4-5.29,2.92-6.85-1.49a42.37,42.37,0,0,1-1.66-9.07,5.26,5.26,0,0,0-.45-2.44c-1.31,0-1.72,1.16-2.39,1.9a97.21,97.21,0,0,1-12.75,12.34,24,24,0,0,1-4.88,2.89c-4.86,2.14-7.94.26-8.24-5a33,33,0,0,1,1.61-11.55,57.55,57.55,0,0,0,2-7.77l-2.61,2.84c-.87,1-1.76,1.93-2.59,2.93a125.05,125.05,0,0,1-10,10.55c-5.76,5.43-9.1,4.6-11.86-2.89a37.68,37.68,0,0,1-2-20.25,21,21,0,0,1,4.56-10.27c8.57-9.81,18.14-18.38,30.24-23.71a35.11,35.11,0,0,1,8.42-2.78,7.3,7.3,0,0,1,7.94,9.7,3.21,3.21,0,0,1-1.83,2.07c-1.92.71-2,2.08-1.55,3.73.18.69.24,1.41.45,2.08a10.9,10.9,0,0,1-1.87,10.06c-2.2,3.08-4.24,6.28-6.33,9.45a14.37,14.37,0,0,0-2.24,9.15c.22,3.23,2.21,4.66,5.34,3.81a14.15,14.15,0,0,0,3.23-1.45,49.05,49.05,0,0,0,7.07-5.36,7.46,7.46,0,0,0,2-3.28,78.58,78.58,0,0,1,14-22.52,9.19,9.19,0,0,1,4.61-3.2c2.06-.52,4.11-.36,5.58,1.33s1.16,3.81.09,5.64a38.53,38.53,0,0,1-3.14,4.28,105.44,105.44,0,0,0-10.25,14.5,8.17,8.17,0,0,0-1.38,4.34,1.46,1.46,0,0,0,.36,1,.93.93,0,0,0,1.27-.21c.66-.67,1.28-1.39,1.88-2.12,4.22-5.12,8.2-10.43,12.61-15.39a101.48,101.48,0,0,1,16.26-14.81c4.83-3.5,6.59-2.7,7.69,3.26.88,4.77.31,9-3.1,12.91a84.09,84.09,0,0,0-9.95,14.26c-1.34,2.38-2.66,4.78-3,7.56-.12,1.17-.36,2.5.68,3.33,1.2,1,2.5.36,3.66-.26,2.53-1.35,4.56-3.38,6.79-5.14a15,15,0,0,0,5.4-8c1.6-5.73,5.49-10.17,9.44-14.45a62.39,62.39,0,0,1,14.53-11.32,27.43,27.43,0,0,1,6.16-2.74c2.74-.8,5.16-.41,7.06,1.91C893.29,1532.77,893.71,1533.34,894.23,1534Zm-103.63.18a95.84,95.84,0,0,0-10.85,5.55c-5.81,3.2-11.53,6.57-16.11,11.49a16.78,16.78,0,0,0-4.95,12.15c.09,3.67,1.52,4.54,4.67,2.77a34.37,34.37,0,0,0,6.5-4.91c8.15-7.53,14.25-16.69,20.48-25.76C790.51,1535.24,790.47,1534.86,790.6,1534.19Zm100.08,10.92a8.86,8.86,0,0,0-1.54.29A102.8,102.8,0,0,0,869,1558a8.65,8.65,0,0,0-2.38,3,36.3,36.3,0,0,0-3.17,10.48c-.19,1.17-.26,2.45.87,3.24s2.21-.12,3.16-.77a11.26,11.26,0,0,0,1.63-1.37c5.36-5.5,10.78-10.95,16-16.57A21.41,21.41,0,0,0,890.68,1545.11Z" transform="translate(-200 -360.32)"/><path class="cls-8" d="M1084.42,1497.44c3.41-1.76,6.33-3.24,9.22-4.77,6.61-3.47,13.21-7,20.09-9.87a38.25,38.25,0,0,1,7.82-2.34,5.56,5.56,0,0,1,6.33,2.82c3.42,5.65,5,11.37,1.75,17.8-2.33,4.65-4.1,9.58-6.1,14.39-.26.61-.85,1.19-.24,2.26,4.69-3.67,9.4-7.22,14-10.94,8.17-6.67,16.25-13.44,24.37-20.17.55-.45,1.08-.92,1.66-1.33,1-.72,2.06-1.37,3.24-.52a2.45,2.45,0,0,1,.7,2.91,49,49,0,0,1-7.11,15.4c-.93,1.28-2.18,2.43-3.85,2.18s-2.93.53-4.15,1.51c-11.46,9.21-23.18,18.06-35.08,26.68a7,7,0,0,0-2.5,2.93c-1,2.29-2,4.55-2.93,6.86-1,2.53-1,2.68,1.25,4.49q10.9,8.83,21.89,17.59c5.18,4.14,10.35,8.3,15.6,12.34,6.07,4.67,7.86,11,7.44,18.26-.23,3.85-2.2,4.94-5.36,2.76-3.9-2.68-7.59-5.67-11.32-8.59q-17.34-13.59-34.66-27.23c-.28-.22-.55-.44-.85-.64-1.89-1.29-2.18-1.28-3.24.69-1.52,2.82-2.93,5.69-4.37,8.54-1.76,3.48-3.91,6.78-4.29,10.82a5.67,5.67,0,0,1-1,2.27,72.72,72.72,0,0,1-7,9.4,8.93,8.93,0,0,1-1.6,1.4c-1.3.91-2.72,1.63-4.29.78s-2-2.55-1.87-4.29a16.3,16.3,0,0,1,2.27-6.31c4.92-8.78,9.78-17.6,14.8-26.32a10.09,10.09,0,0,0,1.16-8.69,13.36,13.36,0,0,1,4.12-14.55c3-2.7,6.19-5.15,9.34-7.66a9.08,9.08,0,0,0,2.77-3.17c3.27-7.1,6.89-14,9.63-21.37.56-1.49,1.87-3.32.56-4.65-1.54-1.56-3.35.06-4.84.79a166,166,0,0,0-19.75,12c-6.36,4.34-12.58,8.88-18.86,13.34-.39.27-.77.56-1.15.83-1.5,1-3,2-4.92.93a5.21,5.21,0,0,1-2.62-4.74,13.66,13.66,0,0,1,.37-3.17c.62-3,1.26-6,1.59-9.09.75-7,4.5-12.34,9.7-16.8,1.35-1.15,2.77-2.22,4.21-3.27a1.31,1.31,0,0,1,1.91.08c.42.53.07,1.14-.28,1.62-.49.67-1,1.29-1.53,2A9.88,9.88,0,0,0,1084.42,1497.44Z" transform="translate(-200 -360.32)"/><path class="cls-9" d="M684.19,1546.4c6.32,0,6.27,0,9.91-5.19,12.7-18.15,25.37-36.31,39.42-53.45,5.4-6.59,10.81-13.19,17.46-18.63a24.8,24.8,0,0,1,5.6-3.72c4.82-2.14,8.69.61,8.22,5.9a40.78,40.78,0,0,1-2,8.63c-2.64,8.41-6.75,16.15-10.94,23.85-1.18,2.19-2.46,4.32-3.71,6.47-1,1.65-1.95,3.26-.86,5.29a2.3,2.3,0,0,1-.58,2.62c-3.6,4.4-7.17,8.84-12,12.06-1.55,1-3.31,2.55-5.15,1.34s-1.09-3.47-.77-5.28c.9-5.08,3.2-9.64,5.54-14.16,4.47-8.63,10-16.61,14.65-25.17.83-1.54,2.94-3.59,1.28-4.86-1.24-1-2.85,1.56-4,2.8a263.3,263.3,0,0,0-20.15,24.79q-12.85,17.43-25.6,35c-2.46,3.39-2.4,3.48,1.63,4.74a112.33,112.33,0,0,1,19.47,8.6,154.27,154.27,0,0,0,18.25,8.74c2.5.93,2.66,1.39.87,3.47-3.32,3.86-6.59,7.77-10.19,11.38a6.7,6.7,0,0,1-7.16,1.77,55.62,55.62,0,0,1-8.53-3.51c-7.24-3.54-14.47-7.08-22-10a59.07,59.07,0,0,0-8.82-2.7,20.29,20.29,0,0,0-11.55.49c-2.23.79-4.48,1.55-6.75,2.22a13.1,13.1,0,0,1-3.48.64c-2.43,0-3.67-1.51-3.32-3.94a7.57,7.57,0,0,1,1.37-3.25c2.22-3.21,4.45-6.42,6.71-9.6,3.67-5.15,8.75-7.42,15-7.28C682.76,1546.41,683.47,1546.39,684.19,1546.4Z" transform="translate(-200 -360.32)"/><path class="cls-10" d="M1193.43,1508.13a15.49,15.49,0,0,1-3.71,10.43c-3,3.39-6.91,2.66-8.7-1.47a8.08,8.08,0,0,1-.57-4.17,19.71,19.71,0,0,1,3.39-9.21c1.32-1.89,2.92-3.51,5.56-3,2.22.44,3.74,2.62,4,5.64A17.4,17.4,0,0,1,1193.43,1508.13Z" transform="translate(-200 -360.32)"/><path class="cls-11" d="M560.47,1358.32a96.39,96.39,0,0,1-24.78,15.8,113.29,113.29,0,0,1-34,8.74c-3.15.33,44.88,6.21,44.88,6.21s5.87-1.69,8.85-2.34c12.38-2.74,24.81-5.28,36.63-10.08,19.56-7.94,37.3-18.54,51.5-34.48a120.21,120.21,0,0,0,20.18-30.37c7.59-16.74,10.28-34.22,7-52.36-4.12-22.7-15.37-41.32-33.19-55.93-16.84-13.82-36.24-19.29-57.77-16.4-22.68,3.05-41.73,13.28-56.14,31.11-16.58,20.53-20.95,43.48-10.92,68.27,6.77,16.76,18.86,27.89,37,31.64,9.33,1.93,18.48,1.59,26.9-3.31s12.71-12.43,12.49-22.06c-.23-9.91-5.6-17.11-13.66-22.44-1.15-.75-2.53-1.76-3.92-.94-1.15.68-.65,2.17-.66,3.31a26.18,26.18,0,0,1-1,8.07c-2,6.24-7.44,9.08-13.75,7.2a20.24,20.24,0,0,1-7.92-4.62c-5.16-4.67-7.77-10.58-8.74-17.39a23,23,0,0,1,4.89-18.3,25.62,25.62,0,0,1,10.53-7.65c15.83-6.49,31.3-5,46.34,2.56a35.07,35.07,0,0,1,11.86,9.48,44.17,44.17,0,0,1,9.63,27.29c.16,8.61-1.56,17-3.3,25.31-.25,1.22-.86,2.44-.42,3.78,3-1,5-2.6,7.47-5.75,5.73-7.47,7.09-16.2,6.82-25.21a67.79,67.79,0,0,0-5-23.16c-3-7.58-7.16-14.41-13.82-19.46-13.77-10.44-29.41-13.65-46.31-12.07-2.28.22-4.56.59-7.63,1a20.42,20.42,0,0,1,5.36-4.1c8.15-4.43,16.94-4.4,25.67-3.07,14.42,2.2,26.11,9.44,35.56,20.47,12.39,14.46,17.94,31.18,17.09,50.13-.6,13.23-5.55,24.84-13.11,35.48-9.94,14-23.12,24.3-37.82,32.81-2.51,1.45-5.22,2.57-8.15,4,.09-.86,0-1.25.17-1.5.6-1,1.25-2,1.92-3,5.75-8.41,11.73-16.69,15.5-26.26,5.62-14.26,8.19-28.88,5.2-44.17a44.42,44.42,0,0,0-12.75-23.74c-6.85-6.67-15.23-10.78-24.36-13.41-.74-.21-1.56-.73-2.55.46a27.34,27.34,0,0,0,5,4.69,72.38,72.38,0,0,1,14.28,13.25c6.73,8.47,10.47,18,10.23,28.85-.21,9.7-3.31,18.61-7.86,27A130.87,130.87,0,0,1,560.47,1358.32Z" transform="translate(-200 -360.32)"/><path class="cls-12" d="M404.85,979.49c1.48,4.45,4.35,7.23,9.1,7.91,1.4.21,2.8.48,4.2.7,24.74,3.82,44.64,15.89,59.92,35.53,9.87,12.69,15.34,27.41,18.65,43,4.13,19.4,4.45,39,2.71,58.68a319.91,319.91,0,0,1-7.39,45.18c-9.53,40.52-23.74,79.39-41.35,117.06-13.36,28.58-29.22,55.82-44.85,83.18a4.59,4.59,0,0,1-1.6,1.73,14.44,14.44,0,0,0,4.86-.6,59.82,59.82,0,0,0,11.9-10.08A174.13,174.13,0,0,0,435.1,1344a486.48,486.48,0,0,0,38.38-68,638.32,638.32,0,0,0,24.25-59.15c8.43-23.84,14.59-48.29,19.74-73,4.53-21.72,7.7-43.59,7.36-65.87a146.27,146.27,0,0,0-5.09-37.19,96.89,96.89,0,0,0-25.11-43.14,115.24,115.24,0,0,0-29.42-21c-1.09-.56-2.95-.69-2.93-2.18s1.82-1.69,2.9-2.32c17.33-10.07,35.26-19,53.08-28.14,26.47-13.58,53.41-26.19,80.46-38.58,23.28-10.66,46.65-21.09,70.57-30.24,10-3.81,20-7.49,30.47-9.67a19.7,19.7,0,0,1,13.76,1.73,244.07,244.07,0,0,1,21.05,12.57c24.65,16.24,48.25,34,72.4,50.93,9,6.33,18,12.66,27.57,18.23a14.61,14.61,0,0,0,5.23,2.38,3.41,3.41,0,0,0-1.21-2.07c-13-13.31-25.3-27.26-39.13-39.74-10.12-9.13-20.43-18-30.81-26.85-10.91-9.29-22.06-18.31-32-28.69a128.53,128.53,0,0,0-13-11.56c-12.17-9.7-25.43-12.16-39.93-5.81-6.94,3-13.84,6.19-20.74,9.34-18.11,8.28-36.17,16.66-54.31,24.86-25.06,11.32-50.17,22.51-75.63,32.9-13.72,5.59-27.44,11.18-41.71,15.29a47.19,47.19,0,0,1-6.23,1.41c-1.66.24-2.49-.41-2.69-2a32.6,32.6,0,0,1,.33-11.65,18,18,0,0,1,7.23-11,68.5,68.5,0,0,1,12.21-6.52,84.45,84.45,0,0,0,17.76-10.37c1.23-1,2.55-1.89,3.09-3.36,1.07-2.92,3.4-4.47,5.92-5.85,2.91-1.6,5.79-3.26,8.77-4.71,16.08-7.87,31.85-16.32,47.44-25.11q44.14-24.86,88.29-49.7c6.81-3.83,13.5-7.91,20.77-10.89s14.74-3.26,22.1,0a78.39,78.39,0,0,1,10.06,5.29,290.06,290.06,0,0,1,24.75,17.93q17.63,13.82,35.22,27.66c.83.65,1.56,1.77,2.87,1.58a2.33,2.33,0,0,0-.4-1.89,66.44,66.44,0,0,0-5.59-8.22c-8.73-11.68-18.24-22.72-27.57-33.91-2.65-3.18-5.08-6.57-8.13-9.4-10.28-9.5-21-18.41-32-27-4.1-3.21-8.28-6.33-12.68-9.14a6.38,6.38,0,0,0-6.4-.62c-2.93,1.28-5.94,2.38-8.83,3.76-19.58,9.34-38.74,19.5-57.89,29.69C608.72,786,587.89,797.32,567,808.53q-18.64,10-37.32,19.94c-4.5,2.39-9.06,4.66-13.65,6.89-2.23,1.08-2.74.72-2.63-1.8.1-2.12.43-4.23.66-6.35a46.77,46.77,0,0,1,15.62-30.62,152.84,152.84,0,0,1,23-16.68c19.31-11.81,38.55-23.74,57.51-36.1,26.71-17.41,53.55-34.61,80.23-52.06a10.7,10.7,0,0,1,11.64-.73,97.91,97.91,0,0,1,13.82,8.7C722.33,704.37,728,710,734.11,715c3.76,3.08,7.61,6,10.61,9.93a62.27,62.27,0,0,0,4,5c2.51,2.61,5.12,5.2,9.22,5,.35-1.67-.57-2.72-1.14-3.84a120.26,120.26,0,0,0-10.26-16.2c-12.93-17.88-26.84-34.94-42.81-50.25a54.2,54.2,0,0,0-5.75-4.74,7.7,7.7,0,0,0-8-1,81.8,81.8,0,0,0-12,6.22c-13.2,8.18-26.28,16.54-39.57,24.56-24.36,14.69-48.9,29.07-72.33,45.24-.49.34-1,.65-1.5,1-1,.61-1.58.18-1.94-.72-2.77-7-3.86-14,.8-20.69,1.68-2.43,3.56-4.74,5.24-7.17s2.93-5.64,5.16-7.57,5.71-2.79,8.51-4.32c9.57-5.25,18.79-11.07,27.89-17.07,19.39-12.79,38.67-25.75,58-38.55,7-4.63,14.25-9,21.3-13.54,6-3.92,12-3.83,18.08-.26a68.42,68.42,0,0,1,8.28,5.51c10.24,8.27,19.71,17.4,29.26,26.43,1.53,1.45,3,2.5,5.18,2.31a3.08,3.08,0,0,0-.36-2.53,58.19,58.19,0,0,0-5.61-10.28,227.22,227.22,0,0,0-30.86-37.08,154.91,154.91,0,0,0-16-14c-3-2.22-3.11-2.14-6.28-.2q-30.65,18.71-61.31,37.39c-13.86,8.45-27.93,16.58-41.15,26-3.07,2.2-6.34,4.16-9.62,6.06-2.83,1.65-3.15,1.38-3.24-1.77-.1-3.57.55-7.08.83-10.62.86-11,5.79-19.52,15.35-25.37,6.77-4.14,13.36-8.58,20-13,15.4-10.23,30.54-20.84,46.15-30.75,8.91-5.66,17.81-11.29,27.14-16.26,5.43-2.9,10.33-2.55,15.37.74a88.29,88.29,0,0,1,12.83,10.1c4.1,3.94,8.09,8,12.15,12a38.91,38.91,0,0,0,10.39,6.91,5.88,5.88,0,0,0-1-3.82c-2.68-5.45-6.25-10.33-9.71-15.29-9.14-13.1-21.06-23.68-32.09-35.07a3,3,0,0,0-.26-.24,7,7,0,0,0-7.27-1.51,35.88,35.88,0,0,0-7.37,3.52L611,587c-4.33,2.69-8.61,5.45-13,8.11-1.6,1-2.21.61-2.08-1.18s.4-3.53.64-5.29c1.25-9.24,5-17,13.12-22.16,1.6-1,3.14-2.13,4.73-3.16,6.27-4,12.59-8,18.82-12.15,11.86-7.83,23.64-15.82,36-22.94a92.57,92.57,0,0,1,14.34-7.05,6.86,6.86,0,0,1,5.8.35,56.74,56.74,0,0,1,8.42,5.29c6.16,4.63,12.06,9.58,17.77,14.76,4,3.65,8,7.42,12.85,10,.68.37,1.33,1.12,2.34.23-.52-2.41-1.91-4.49-3.14-6.62-3.73-6.49-8.3-12.39-12.86-18.31-7.86-10.17-17.37-18.74-26.66-27.53a15.5,15.5,0,0,0-1.7-1.29,9.68,9.68,0,0,0-8.41-1.66,34.51,34.51,0,0,0-6.37,2.2,91,91,0,0,0-9.32,5.18q-24.6,15.31-49.2,30.63c-1,.6-1.78,1.6-3.3,1.43,0-3.23.86-6.31,1.31-9.43a13.49,13.49,0,0,0-10.39-15.5c-2.53-.62-5.12-1-7.68-1.48a20.62,20.62,0,0,1-6.11-1.82c-2.49-1.32-2.51-1.91-.36-3.73,5.43-4.58,11-9,16.18-13.87,8.27-7.82,17.41-14.62,25.75-22.34,6.7-6.19,13.87-11.85,20.74-17.83,14.29-12.44,28.12-25.41,42.13-38.17,5.45-5,5.55-5,11.82-1.27,13,7.75,24.65,17.25,36.38,26.67,19.58,15.73,39,31.7,58.5,47.5a140.08,140.08,0,0,0,14.13,10.17c1.06.66,2.16,1.87,4,1a25,25,0,0,0-5.26-7.66c-4.51-4.88-9.76-9-14.39-13.74-4.39-4.5-8.62-9.14-13.12-13.52a429.22,429.22,0,0,1-41.13-46.1c-8.6-11.19-17-22.47-23.24-35.24-1.49-3.09-3.3-6-4.95-9-2.52-4.61-5.94-8.24-10.94-10.17h-5a18.4,18.4,0,0,1-2,.77,23.45,23.45,0,0,0-15.29,12.32c-5.68,10.73-13.79,19.43-23,27.2-12.52,10.51-24.86,21.24-37.27,31.87q-16.33,14-32.67,28c-10.28,8.76-20.73,17.32-30.21,27-6.23,6.34-12.73,12.41-18.48,19.21-2.69,3.19-5.15,6.52-6.39,10.57-1.77,5.74-.16,10,4.95,13a30.89,30.89,0,0,0,10,3.56,122.39,122.39,0,0,0,20.84,2.1c4.26.12,8.53.05,12.8.15,4.57.12,5.27.79,5.62,5.43a81.87,81.87,0,0,1,0,12.43,21,21,0,0,1-2.46,8.44,64.61,64.61,0,0,0-7.46,30.76,60.93,60.93,0,0,0,.59,10.63,6.92,6.92,0,0,1-2.35,7,33.34,33.34,0,0,0-4.22,4.79c-10.26,13-14.28,27.9-13.67,44.16.18,4.84.56,9.68.58,14.54a13.08,13.08,0,0,1-3.77,9.3c-1.61,1.73-3.09,3.6-4.76,5.27-9.71,9.69-12.35,21.86-11.93,34.92a171.51,171.51,0,0,0,1.74,21.58,9.78,9.78,0,0,1-4.42,10.41c-3.69,2.58-7.33,5.23-11,7.8-16.33,11.34-27.32,26.37-32,45.82-2.41,9.95-3.15,20.1-3.54,30.28-.17,4.27-.53,8.51-.91,12.75-.64,7.23-3.56,13.16-9.82,17.26-8.46,5.54-14.68,13.35-20.92,21.11a17.5,17.5,0,0,0-4.13,12.5,108.54,108.54,0,0,1-1.16,21.6c-.36,2.59-1.2,4.49-3.66,5.57-1,.43-1.83,1.09-2.78,1.57C432,938.5,419,944.75,405.33,949.56c-3.16,1.11-3.17,1.22-3.24,4.58a150.43,150.43,0,0,0,1,16.3A39.72,39.72,0,0,0,404.85,979.49Z" transform="translate(-200 -360.32)"/><path class="cls-13" d="M1784.84,1321.6a19.22,19.22,0,0,0-4.66-5.31c-6.61-5.29-14.4-8.16-22.3-10.73-12.67-4.12-25.75-6.43-38.88-8.43-5.73-.88-11.51-1.46-17.28-2.14-.91-.11-2-.37-2.67.48s.12,1.78.54,2.6a19.31,19.31,0,0,0,8.33,8.49c1.88,1,3.78,2,5.59,3.12,3.41,2.12,3.73,3.1,2.7,7.06a23.77,23.77,0,0,1-7.5,11.84,64.49,64.49,0,0,1-16.46,10.41c-9.08,4.17-18.64,7-28.09,10.09q-29.88,9.92-60.37,17.72c-31.58,8.15-63.49,14.74-95.62,20.29q-50.79,8.78-102.06,14.24c-19.78,2.15-39.6,4-59.42,5.71-16.28,1.41-32.6,2.51-48.9,3.58-12.89.85-25.78,1.51-38.67,2.16-10.77.54-21.54,1-32.31,1.4q-23.44.83-46.9,1.44c-12.55.34-25.12.48-37.67.58-37,.28-74,.75-110.94-.31-14.69-.42-29.39.07-44.08-.72-9.34-.5-18.71-.31-28.07-.62-16.34-.55-32.69-.92-49-1.52-12.54-.46-25.09-.88-37.64-1.39-11.84-.48-23.67-.92-35.51-1.45q-15.27-.68-30.53-1.41c-13.84-.64-27.68-1.33-41.51-2.18-14.07-.85-28.16-1.48-42.22-2.38-4.14-.26-8.28-.5-12.41-.79-8.75-.62-17.48-1.28-26.23-1.9-7.79-.56-15.6-1-23.39-1.65-10.15-.8-20.3-1.72-30.45-2.57-9.68-.81-19.36-1.56-29-2.38-2.2-.18-4.39-.52-6.59-.78C593.14,1394,490,1385,415.18,1374.5c-2.54-.32-13-1.53-13.71-1.63-7.27-1-14.56-1.94-21.84-2.95q-22-3.08-43.9-6.83c-23.23-4-46.61-7.09-69.81-11.37-20.5-3.79-41.18-6.6-61.79-9.8a6.91,6.91,0,0,0-4.13.12,34.9,34.9,0,0,0,8.69,3.42c10.94,3.18,22.15,5.18,33.27,7.57,20.27,4.36,40.52,8.87,60.82,13.09,32.61,6.78,65.35,12.87,98.17,18.52,20.67,3.56,41.36,7,62.11,10,15.59,2.3,31.16,4.7,46.77,6.87,15.37,2.15,30.76,4.13,46.16,6.07q22.21,2.79,44.46,5.32c14.24,1.61,28.5,3,42.76,4.49,13.78,1.4,27.57,2.79,41.37,4,12.39,1.12,24.79,2.06,37.18,3,14.17,1.13,28.33,2.31,42.51,3.31q22,1.56,44,2.82c13.72.8,27.44,1.49,41.16,2.16,10.53.52,21.06,1,31.6,1.38,13.5.44,27,.81,40.49,1.42,8.76.4,17.53.21,26.3.66,11.94.61,23.92.34,35.89.68,25.47.73,51,.08,76.44.71,17.17.43,34.36.16,51.55-.3,20.37-.56,40.76.15,61.14-.72,11.6-.49,23.23-.1,34.83-.77,7.1-.4,14.21-.37,21.32-.6q27.52-.9,55-2.24c8.51-.43,17-.91,25.54-1.37q22.71-1.2,45.39-2.93c13.22-1,26.46-1.88,39.67-3.08,15.69-1.42,31.35-3.12,47-4.72,20.16-2.06,40.25-4.62,60.32-7.39,29.11-4,58.13-8.68,87-14.35,20.23-4,40.4-8.31,60.6-12.45a648.29,648.29,0,0,0,95-26.75,156.08,156.08,0,0,0,28.25-13.33,38.82,38.82,0,0,0,9.71-8.25C1787,1332.93,1787.85,1326.81,1784.84,1321.6Z" transform="translate(-200 -360.32)"/><path class="cls-14" d="M1416.16,1297a4.42,4.42,0,0,1,.57,3.32c-1.35,13.69-5.16,26.51-13.88,37.45a42.68,42.68,0,0,1-29.62,16.45,45.67,45.67,0,0,1-26.49-5.06c-13.77-7.08-24-17.54-29.4-32.33a70.48,70.48,0,0,1-3.91-22c-.36-12.36,1.33-24.57,3-36.77,1.21-8.67,2.45-17.34,3.65-26,.36-2.61.08-2.93-2.67-2.28-5.08,1.19-10.11,2.57-15.16,3.88a87.09,87.09,0,0,1-15.38,2.72c-3.09.25-3.64-.33-3-3.36a61.7,61.7,0,0,1,5.66-16c4-7.44,10.15-12.75,17.53-16.63,5.67-3,11.46-5.72,17.18-8.59a34.91,34.91,0,0,0,7.65-5.12,16.32,16.32,0,0,0,5.53-10.43c.59-4.34,1.11-8.69,1.81-13,1.8-11.14,5.45-21.82,8.48-32.65a202.32,202.32,0,0,1,10.49-29.42,78.43,78.43,0,0,1,12.86-20.36c8.46-9.39,19-14.25,31.8-14a18.42,18.42,0,0,1,2.47.21,1.75,1.75,0,0,1,1.67,2.23c-.15.82-.32,1.63-.52,2.44q-13.9,56-27.83,112.07c-1.29,5.19-1.3,5.23,4.14,5.24,10.91,0,21.82.2,32.71-.12a194.22,194.22,0,0,0,37.37-4.35c10.46-2.38,20-6.7,28-13.94a36.53,36.53,0,0,1,10.36-6.8,27,27,0,0,1,4.38-1.43c2.22-.5,2.66-.07,2.81,2.3,0,.24,0,.48,0,.71-.4,7.81-.83,15.6-2.43,23.29-2.87,13.86-11.29,23.13-23.87,29a109.89,109.89,0,0,1-33.79,9.28c-13.23,1.58-26.48,1.17-39.75.71a162.18,162.18,0,0,0-28.37,1.32c-3.64.51-3.83.56-4.37,4.31-2,14.07-5.22,27.94-7.16,42a113.64,113.64,0,0,0-1.14,21.25c.59,11.82,10.52,20,22.26,18.49,11-1.37,20.08-6.8,29-12.76C1411.3,1300.64,1413.61,1298.83,1416.16,1297Z" transform="translate(-200 -360.32)"/><path class="cls-15" d="M1569.1,1195.34c-6.15.46-12.28,1-18.43,1.38a71.62,71.62,0,0,1-16-.33q-13.77-2.17-19.43-14.83a30.11,30.11,0,0,1-2.83-13.09c.06-3.27.55-3.78,3.78-3.46,7.09.7,14.2.89,21.3,1a120.58,120.58,0,0,0,30.66-3.3,84.47,84.47,0,0,1,37-.86,33.7,33.7,0,0,1,5.44,1.64c9.47,3.61,14.88,10.53,16.63,20.45,1.14,6.52.66,13-.33,19.45-1.75,11.51-5.08,22.63-8.5,33.72-4.48,14.48-9.42,28.82-13.33,43.48-3.64,13.65-6.55,27.4-6.31,41.65a71.2,71.2,0,0,0,1.88,14.4,15,15,0,0,0,5.92,9.39c1.16.83,3.14,1.56,2.61,3.4s-2.51,1.5-4,1.77c-7.58,1.44-15.19,2.54-23,2.18a32.08,32.08,0,0,1-14.27-3.87,22.56,22.56,0,0,1-11.36-14.76,64.39,64.39,0,0,1-1.58-15.16c-.08-5.68-.8-6.11-5.95-3.67-7.83,3.71-15.18,8.3-22.71,12.55-10.22,5.78-20.49,11.44-31.52,15.56a62.72,62.72,0,0,1-21.87,4.26,35.74,35.74,0,0,1-10.17-1.47c-12.09-3.54-19.49-12.64-20.82-25.16-1.46-13.71,2.65-26,9.36-37.6,10.18-17.54,24-31.93,39.75-44.57,13.57-10.9,28.86-18.55,45.24-24.14,9-3.06,18-5.82,27-8.77,4.07-1.33,8.07-2.83,11.5-5.47,1.48-1.15,3.68-2.36,3.14-4.33s-3-1.09-4.71-1.28a37.81,37.81,0,0,0-4.26,0Zm-79.82,105.58c0,.47,0,.94,0,1.42.34,8.17,4.68,11.45,12.71,9.64a45.68,45.68,0,0,0,10.66-3.89,194.58,194.58,0,0,0,48.3-34.72,19.07,19.07,0,0,0,3.81-4.66,87.38,87.38,0,0,0,8.59-23.24c.94-4.62.39-5.38-4.22-5.11-16.48,1-32,5.28-46.18,13.87-11.88,7.19-21.56,16.6-28.32,28.82A40.59,40.59,0,0,0,1489.28,1300.92Z" transform="translate(-200 -360.32)"/><path class="cls-16" d="M1184.17,1319.36c.07,5,0,8.67-.79,12.29-1.79,8.15-6.27,14.17-13.81,17.89a48.25,48.25,0,0,1-14.63,4.21,52.3,52.3,0,0,1-22.87-1.29c-9.63-2.9-17.3-8.66-23.58-16.37-9.42-11.55-14.25-25-16.29-39.58-2-13.94-1.36-27.87.34-41.77,3.24-26.37,9.3-52.21,15-78.1a691.32,691.32,0,0,1,22.9-81.36c6.3-17.77,13.47-35.18,23.3-51.36,5.31-8.74,11.27-17,18.93-23.86,5.64-5.07,11.94-8.93,19.43-10.61.58-.13,1.16-.25,1.75-.33,3.15-.45,3.47-.12,2.61,2.86-2.73,9.44-5.63,18.84-8.19,28.33-8.35,30.87-18.19,61.31-26.94,92.07-8.22,28.95-15.46,58.14-20.3,87.87a340.09,340.09,0,0,0-4.87,51.58c0,6.5-.32,13,.18,19.5a49.91,49.91,0,0,0,2.95,14.2q4.89,12.66,18.52,12.89c1.54,0,3.09,0,4.62-.09,6.84-.47,12.67-2.8,16.61-8.81.81-1.22,1.57-3.4,3.08-3.06,1.93.43,1,2.81,1.41,4.32C1184.35,1314,1184.09,1317.38,1184.17,1319.36Z" transform="translate(-200 -360.32)"/><path class="cls-17" d="M1798.69,1154.94c-.71,8.29-1.8,16.71-5.44,24.6a30.32,30.32,0,0,1-18.35,16.72,60.92,60.92,0,0,1-14.25,2.83c-6.49.61-13,.64-19.52.84a129.43,129.43,0,0,0-19.42,1.92c-18,3.31-30.24,13.8-37.6,30.31-4.86,10.89-7.47,22.43-9.83,34-2.65,13-4.86,26.07-8.66,38.8-2.82,9.47-6.43,18.57-12.49,26.52A47.11,47.11,0,0,1,1627,1348.9c-.35.09-.69.18-1,.25-2.78.52-3.31.22-3.17-2.54.17-3.3.55-6.6,1-9.88,2.54-18.45,7.17-36.45,11.88-54.43,4.6-17.52,9.38-35,12.92-52.76,3-14.88,5.13-29.85,4.85-45.09a106.1,106.1,0,0,0-3.06-23.89c-.23-.92-.48-1.83-.66-2.76-.22-1.16.35-1.79,1.47-2a1.48,1.48,0,0,1,.35,0c8.42.42,16.91.56,23.92,6.3a31.94,31.94,0,0,1,7.41,9.44c1.89,3.38,2.74,3.75,6.61,3a19.13,19.13,0,0,0,8.36-3.75c10.62-8.47,23.16-10.77,36.24-11.74,10.41-.78,20.84-.41,31.25-.58,5-.09,9.94-.35,14.9-.81a12.59,12.59,0,0,0,7.75-3.1c2.23-2,5.09-3,8-3.82,2.17-.62,2.65-.16,2.75,2.23C1798.71,1153.52,1798.69,1154.11,1798.69,1154.94Z" transform="translate(-200 -360.32)"/><path class="cls-18" d="M1198.74,1281.59c0-24.18,4.57-47.53,12.68-70.25a150.38,150.38,0,0,1,11.83-26.19c5.82-9.82,13-18.33,23.16-24a54.8,54.8,0,0,1,16.64-6c3.56-.68,4.12,0,3.94,3.63-1,20-5.66,39.33-11.12,58.49-4,13.9-7.75,27.83-10.17,42.11a134.57,134.57,0,0,0-1.78,30.78,43.6,43.6,0,0,0,4.36,17.46c4,7.89,11.15,11.44,20,10.27,7-.93,13-3.48,17.51-9.07a22.46,22.46,0,0,1,1.73-1.79c2.46-2.43,3-2.29,4.15,1.11,4.3,12.74-.41,28.52-11.37,37.14-14.26,11.2-29.88,11.62-45.91,4.7-12.39-5.34-20.72-15.18-27-26.8-6.38-11.85-9-24.63-8.65-38C1198.77,1284,1198.74,1282.77,1198.74,1281.59Z" transform="translate(-200 -360.32)"/><path class="cls-19" d="M788.82,1292.23c1.15-2.31,2.95-3.72,4.35-5.41,12.6-15.17,23.5-31.5,33.61-48.4A223.63,223.63,0,0,0,852,1178c3.95-15.69,6.18-31.64,5.32-47.84-1.38-26.25-9.47-50.17-26.37-70.64-13.17-16-29.72-26.85-50.28-30.56-23.13-4.18-43.94,1.38-62.11,16.44-3.85,3.18-7.29,6.77-10.83,10.26a28.07,28.07,0,0,1-4.58,3.92c-.68.43-1.37,1.2-2.23.76-1.08-.55-.66-1.68-.59-2.56.13-1.41.42-2.81.66-4.21a64.48,64.48,0,0,1,11-27.07c9-12.45,21.44-19.44,36.35-22.28,15.82-3,31.18-.76,46.07,4.83,27.27,10.25,47.78,28.51,62.19,53.66,9.73,17,15.21,35.4,17.41,54.8,3.16,27.78-1.92,54.2-13.29,79.58-9.94,22.19-23,42.49-38,61.51a275.55,275.55,0,0,1-18.41,20.69,129.84,129.84,0,0,1-13.62,12.47A2,2,0,0,1,788.82,1292.23Z" transform="translate(-200 -360.32)"/><path class="cls-20" d="M940.86,1293.85c2.55.16,4.06,1.36,5.64,2.29,4.39,2.59,8.51,5.68,13.26,7.57,13.73,5.49,26.91,5.36,38.7-4.72a40.18,40.18,0,0,0,11.22-16.63,68.11,68.11,0,0,0,1.92-42.92c-2.07-7.67-6.26-14.27-10.88-20.63-.93-1.28-2.22-2.39-2.59-4.26,1.68-.24,2.66.75,3.7,1.4,12.87,8.08,21.28,19.69,26.42,33.77,4.5,12.33,5.29,24.86.18,37.15-7.28,17.52-19.52,29.88-39,32.58-18.43,2.57-33.8-3.81-45.21-18.82a32.1,32.1,0,0,1-2.53-4.28A20.24,20.24,0,0,1,940.86,1293.85Z" transform="translate(-200 -360.32)"/><path class="cls-21" d="M1241.81,1123.69c-3.82.08-4.22-.2-4.66-3.84-1.47-12.14,2.95-21.82,12.6-29.1,7.94-6,17.15-8.94,26.86-10.55a66.61,66.61,0,0,1,14.17-.66c2.6.12,3,.78,1.89,3.12a84,84,0,0,0-4.5,11.95c-3.72,12.36-12.15,20.31-23.88,25C1257,1122.51,1249.33,1123.07,1241.81,1123.69Z" transform="translate(-200 -360.32)"/><path class="cls-22" d="M1003,1090.12c3-.94,6-1.47,8.83-2.6,9.2-3.62,14.77-12,14.17-21.58-.35-5.68-2.94-10.43-6.59-14.61a54.32,54.32,0,0,0-9-8.48c-.65-.47-1.22-1.06-1.8-1.57.54-1.13,1.28-.58,1.87-.44,6.43,1.54,12.4,4.08,17.24,8.69,7.07,6.72,10.1,14.82,7.09,24.43s-9.91,15-19.57,17A20.48,20.48,0,0,1,1003,1090.12Z" transform="translate(-200 -360.32)"/><path class="cls-23" d="M1086.71,1241.3c-3.69-25.84-14-48.64-31.82-67.75-16.44-17.65-36.43-29.3-60.51-33.29-4.91-.82-9.82-1.64-14.76-2.18a101.88,101.88,0,0,0-24.8.17c-10.92,1.48-21.17,5.1-31.17,9.56-.89.4-1.76,1.26-2.89.64a6.51,6.51,0,0,1,.28-3.21c3.38-17.92,7-35.79,11.35-53.52,2.79-11.39,5.65-22.76,9.94-33.71,5.72-14.6,16.29-24.18,30.95-29.33a63.27,63.27,0,0,1,30.15-2.77c10.51,1.47,20.26,5,28.46,12a32.24,32.24,0,0,1,11.3,18.8,33.81,33.81,0,0,1-1.77,18.16c-2.71,7.59-6.68,14.63-13.12,19.53a52.17,52.17,0,0,1-25.33,10.55,34.28,34.28,0,0,1-17.14-1.9c-11.51-4.56-18-17.34-13.72-29a31.77,31.77,0,0,1,10.73-14.28c4.42-3.47,9.57-5.12,15-6.15a18,18,0,0,0,4.78-1.33c1.37-.69,1.51-1.51.31-2.4a22,22,0,0,0-3.68-2.13c-17.59-8.37-37.85-2.6-49.73,11.83-12.93,15.7-13.33,38.81-2.81,53.74,9.08,12.88,21.9,20.41,37.37,23.24,8.69,1.59,17.49.9,26.24.46a15.83,15.83,0,0,0,4.55-.76c7.24-2.6,14.66-4.74,21.73-7.85,15.55-6.83,27.6-17.33,34.69-33,5.75-12.7,8.4-25.9,5.69-39.78-4-20.45-15.08-36.55-32-48.27-19-13.23-40.52-18-63.55-15.28-22.31,2.59-39.89,13.55-53.46,31.13-7,9.15-11.15,19.77-14.3,30.76-2.06,7.18-3.93,14.4-6,21.58-.39,1.36-.46,3-1.79,4a7.46,7.46,0,0,1-1.36-3.15c-7.07-23-16.92-44.74-30.69-64.58-12.92-18.61-28.54-34.42-48.18-46.06A114.6,114.6,0,0,0,775,949.57c-18.61-1.34-36.61,1.77-54,8.42-16.83,6.44-32.23,15.48-46.88,25.86a173,173,0,0,0-22.22,18.82,137,137,0,0,0-21.27,27c-12.56,21.23-18.77,43.87-15.12,68.65,3.12,21.26,12.6,39.24,29.1,53,21.23,17.67,45.87,23.62,72.92,18.44,17.15-3.29,31.4-11.94,41.9-26.06,8.07-10.84,12-23,10.24-36.68s-9.35-23.79-20.06-31.85a31.32,31.32,0,0,0-13.17-6c-.66-.12-1.47-.49-1.86.39-.28.61.25,1.12.62,1.55a66.25,66.25,0,0,1,6.33,8.12c9.66,15.42,7.67,33.71-5.27,46.51-12.32,12.19-27.57,15.22-44,12.93-12.55-1.75-22.48-8.59-30.16-18.52-11.47-14.85-15.09-32-13.35-50.29,2.26-23.75,13.46-43.13,30.8-59.13,10.1-9.31,21.66-16.47,34.08-22.31a104.65,104.65,0,0,1,38.21-10.32,99.13,99.13,0,0,1,50,10.07,132.23,132.23,0,0,1,44.74,35.55c22.57,27.26,35.55,58.6,38.41,93.86a174.48,174.48,0,0,1-3.86,53c-9,39.87-27.78,74.87-53.56,106.29a407.41,407.41,0,0,1-40.16,41.68,278.83,278.83,0,0,1-37.6,29.14c-2,1.32-9.51,5.58-52.52,24.64-16.3,7.22-34.36,9-52,11.37-12.57,1.65-25.19,2.76-37.83,3.77s-25,2-37.61,2.06c-3.17,0-6.4-.38-9.44,1.06a1.4,1.4,0,0,1-.29.09c20.2,2,52.36,2.66,60.5,2.22,13.12-.73,26.2-2.11,39.24-3.89a301.09,301.09,0,0,0,51.66-11.35,367.33,367.33,0,0,0,83.65-38.77,307.65,307.65,0,0,0,48.27-37.36,257,257,0,0,0,42.27-52.42c4-6.56,8.16-13.06,12.64-19.33,7.7-10.78,17.17-19.88,27.09-28.55,12.43-10.86,27-15.3,43.2-13.18,23.43,3.06,42.95,14.12,58.1,32,14.31,16.93,19.8,36.81,15.54,58.74-4,20.35-15.83,34.54-35.18,42.31-7.23,2.91-14.81,4-22.54,4.58-10,.69-19.68-.26-29-4-10.73-4.38-17.61-12.21-20-23.67a42,42,0,0,1,0-16.6c3-15.22,10.35-27.94,22.68-37.44,12-9.24,25.28-12,39.82-6.54.79.3,1.61,1.08,2.57.41,0-.18.08-.33,0-.41a12.09,12.09,0,0,0-1-1.48c-12.68-15.67-28.69-25-49.25-25-21.36,0-38.65,8.64-51.38,25.68-11.44,15.29-14.88,32.84-12.19,51.53,3.2,22.17,14.13,40,31.88,53.54,16.41,12.53,35.3,18,55.72,18.61a128.79,128.79,0,0,0,32.08-3.48c21.92-4.91,41.26-14.5,56.53-31.43a92.82,92.82,0,0,0,19.94-35.3A110.76,110.76,0,0,0,1086.71,1241.3Z" transform="translate(-200 -360.32)"/><path class="cls-24" d="M770.93,1310.81c1.9-7.23,2.57-14.56.28-21.73-3.78-11.83-9.82-22.33-19.8-30.13a42.92,42.92,0,0,0-33.7-9.07,53.26,53.26,0,0,0-33.84,18.56c-8.49,9.87-12.8,21.28-10.62,34.46,2.09,12.64,8.57,22.23,20.52,27.54,7.16,3.18,14.55,3.43,21.72.08,5.79-2.7,9.77-7.12,10.47-13.77.78-7.41-2.89-13-7.94-17.81-.79-.76-1.54-.51-1.92.51-.28.77-.45,1.59-.66,2.39a19.37,19.37,0,0,1-3.74,7.2c-4.61,5.64-10.9,5.54-15.31-.22a21,21,0,0,1-2.83-4.91,13.29,13.29,0,0,1,4.22-16.23,32.12,32.12,0,0,1,15.14-6.63c12.93-2.06,23.89,4.14,28.73,16.29a42.14,42.14,0,0,1,2.7,13.87c0,1.17-.44,2.55,1,3.72a20.48,20.48,0,0,0,4.52-14.35c-.77-10.77-6.29-18.68-15.64-23.88-8.24-4.58-17.09-5.28-26.23-3.6-.84.15-1.75.63-2.64-.13a17.47,17.47,0,0,1,8.23-4.15c6.64-1.46,13-.28,19.11,2.25,20.21,8.34,30.86,35.72,20,55.69a74.7,74.7,0,0,1-11.59,15.65,104.69,104.69,0,0,1-9.19,8.25c-.2-.32-.33-.44-.3-.52a13.49,13.49,0,0,1,.56-1.66,63.94,63.94,0,0,0,5.46-19.06c.91-8.17,1.11-16.33-2.22-24.13-3.86-9-11-14-20.37-16a1,1,0,0,0-1.24.68c.49,1.24,1.81,1.65,2.88,2.27a22.53,22.53,0,0,1,10.39,12.6c.65,1.91,1.35,3.79,2,5.72a32.29,32.29,0,0,1,.32,18.2c-2.41,9.2-7.54,16.81-13.86,23.68A138.56,138.56,0,0,1,698.92,1368c-1.12.88-2.55,1.64-2.85,3.21.84.73,45.91-19.5,48.57-20.76,2.43-2.37,5.07-4.42,7.47-6.73C761.58,1334.58,767.61,1323.46,770.93,1310.81Z" transform="translate(-200 -360.32)"/></svg>